<?xml version="1.0" encoding="UTF-8" standalone="no"?>
<!DOCTYPE svg PUBLIC "-//W3C//DTD SVG 1.1//EN" "http://www.w3.org/Graphics/SVG/1.1/DTD/svg11.dtd">
<svg width="100%" height="100%" viewBox="0 0 94 94" version="1.1" xmlns="http://www.w3.org/2000/svg" xmlns:xlink="http://www.w3.org/1999/xlink" xml:space="preserve" xmlns:serif="http://www.serif.com/" style="fill-rule:evenodd;clip-rule:evenodd;stroke-linejoin:round;stroke-miterlimit:1.41421;">
    <g transform="matrix(1,0,0,1,-70.9,-103.3)">
        <path d="M117.5,196.5C91.8,196.5 70.9,175.6 70.9,149.9C70.9,124.2 91.8,103.3 117.5,103.3C143.2,103.3 164.1,124.2 164.1,149.9C164.1,175.6 143.2,196.5 117.5,196.5ZM117.5,106.9C93.8,106.9 74.5,126.2 74.5,149.9C74.5,173.6 93.8,192.9 117.5,192.9C141.2,192.9 160.5,173.6 160.5,149.9C160.5,126.2 141.2,106.9 117.5,106.9Z" style="fill:rgb(59,89,152);fill-rule:nonzero;"/>
    </g>
    <g transform="matrix(1,0,0,1,-70.9,-103.3)">
        <path d="M128.6,142.9L120.5,142.9L120.5,137C120.5,135.2 122.4,134.8 123.3,134.8L128.5,134.8L128.5,126.8L122.5,126.8C114.3,126.8 112.4,132.8 112.4,136.6L112.4,143L106.5,143L106.5,151.2L112.4,151.2L112.4,173.4L120.5,173.4L120.5,151.2L127.4,151.2L128.6,142.9Z" style="fill:rgb(59,89,152);"/>
    </g>
</svg>
