<?xml version="1.0" encoding="UTF-8" standalone="no"?>
<!DOCTYPE svg PUBLIC "-//W3C//DTD SVG 1.1//EN" "http://www.w3.org/Graphics/SVG/1.1/DTD/svg11.dtd">
<svg width="100%" height="100%" viewBox="0 0 94 94" version="1.1" xmlns="http://www.w3.org/2000/svg" xmlns:xlink="http://www.w3.org/1999/xlink" xml:space="preserve" xmlns:serif="http://www.serif.com/" style="fill-rule:evenodd;clip-rule:evenodd;stroke-linejoin:round;stroke-miterlimit:1.41421;">
    <g transform="matrix(1,0,0,1,-494.6,-103.5)">
        <rect x="521.4" y="143" width="8.5" height="26.9" style="fill:rgb(0,115,176);"/>
    </g>
    <g transform="matrix(1,0,0,1,-494.6,-103.5)">
        <path d="M553,142.7C548.2,142.7 545.1,145.3 544.5,147.2L544.5,143L535,143C535.1,145.2 535,169.9 535,169.9L544.6,169.9L544.6,155.4C544.6,154.6 544.6,153.7 544.8,153.2C545.5,151.5 546.8,149.9 549.4,149.9C552.7,149.9 554.2,152.4 554.2,156L554.2,169.9L563.9,169.9L563.9,154.9C563.7,146.6 559,142.7 553,142.7Z" style="fill:rgb(0,115,176);fill-rule:nonzero;"/>
    </g>
    <g transform="matrix(1,0,0,1,-494.6,-103.5)">
        <path d="M525.4,130.3C522.2,130.3 520.2,132.3 520.2,135C520.2,137.6 522.2,139.6 525.3,139.6L525.4,139.6C528.6,139.6 530.6,137.6 530.6,134.9C530.5,132.3 528.6,130.3 525.4,130.3Z" style="fill:rgb(0,115,176);fill-rule:nonzero;"/>
    </g>
    <g transform="matrix(1,0,0,1,-494.6,-103.5)">
        <path d="M541.2,196.7C515.5,196.7 494.6,175.8 494.6,150.1C494.6,124.4 515.5,103.5 541.2,103.5C566.9,103.5 587.8,124.4 587.8,150.1C587.8,175.8 566.9,196.7 541.2,196.7ZM541.2,107.1C517.5,107.1 498.2,126.4 498.2,150.1C498.2,173.8 517.5,193.1 541.2,193.1C564.9,193.1 584.2,173.8 584.2,150.1C584.2,126.4 564.9,107.1 541.2,107.1Z" style="fill:rgb(0,115,176);fill-rule:nonzero;"/>
    </g>
</svg>
