<?xml version="1.0" encoding="UTF-8" standalone="no"?>
<!DOCTYPE svg PUBLIC "-//W3C//DTD SVG 1.1//EN" "http://www.w3.org/Graphics/SVG/1.1/DTD/svg11.dtd">
<svg width="100%" height="100%" viewBox="0 0 94 94" version="1.1" xmlns="http://www.w3.org/2000/svg" xmlns:xlink="http://www.w3.org/1999/xlink" xml:space="preserve" xmlns:serif="http://www.serif.com/" style="fill-rule:evenodd;clip-rule:evenodd;stroke-linejoin:round;stroke-miterlimit:1.41421;">
    <g id="Twitter_1_" transform="matrix(1,0,0,1,-212.2,-103.3)">
        <path d="M279.2,132C277.4,133.1 275.5,133.9 273.4,134.2C271.7,132.4 269.4,131.3 266.8,131.3C261.8,131.3 257.7,135.4 257.7,140.6C257.7,141.3 257.8,142 257.9,142.7C250.4,142.3 243.7,138.6 239.3,133C238.5,134.4 238.1,135.9 238.1,137.7C238.1,140.9 239.8,143.7 242.1,145.5C240.6,145.5 239.3,145 238,144.3L238,144.4C238,148.9 241.1,152.7 245.3,153.5C244.6,153.7 243.8,153.9 242.9,153.9C242.3,153.9 241.7,153.9 241.2,153.8C242.4,157.5 245.7,160.2 249.7,160.3C246.6,162.8 242.7,164.3 238.5,164.3C237.8,164.3 237.1,164.3 236.4,164.2C240.4,166.8 245.1,168.3 250.3,168.3C266.9,168.3 276.1,154.1 276.1,141.9C276.1,141.5 276.1,141.1 276.1,140.7C277.9,139.4 279.4,137.8 280.6,135.9C278.9,136.6 277.2,137.2 275.4,137.3C277,135.9 278.4,134.1 279.2,132Z" style="fill:rgb(29,161,242);fill-rule:nonzero;"/>
    </g>
    <g transform="matrix(1,0,0,1,-212.2,-103.3)">
        <path d="M258.8,196.5C233.1,196.5 212.2,175.6 212.2,149.9C212.2,124.2 233.1,103.3 258.8,103.3C284.5,103.3 305.4,124.2 305.4,149.9C305.4,175.6 284.5,196.5 258.8,196.5ZM258.8,106.9C235.1,106.9 215.8,126.2 215.8,149.9C215.8,173.6 235.1,192.9 258.8,192.9C282.5,192.9 301.8,173.6 301.8,149.9C301.8,126.2 282.5,106.9 258.8,106.9Z" style="fill:rgb(29,161,242);fill-rule:nonzero;"/>
    </g>
</svg>
