<?xml version="1.0" encoding="UTF-8" standalone="no"?>
<!DOCTYPE svg PUBLIC "-//W3C//DTD SVG 1.1//EN" "http://www.w3.org/Graphics/SVG/1.1/DTD/svg11.dtd">
<svg width="100%" height="100%" viewBox="0 0 48 31" version="1.1" xmlns="http://www.w3.org/2000/svg" xmlns:xlink="http://www.w3.org/1999/xlink" xml:space="preserve" xmlns:serif="http://www.serif.com/" style="fill-rule:evenodd;clip-rule:evenodd;stroke-linejoin:round;stroke-miterlimit:1.41421;">
    <g transform="matrix(1,0,0,1,-375.8,-134.4)">
        <path d="M390.9,146.5L390.9,152.5C390.9,152.5 396.7,152.5 399,152.5C397.7,156.4 395.7,158.5 390.9,158.5C385.9,158.5 382.1,154.5 382.1,149.5C382.1,144.5 386,140.5 390.9,140.5C393.5,140.5 395.3,141.4 396.8,142.7C398.1,141.4 398,141.3 401,138.3C398.3,135.8 394.7,134.4 390.9,134.4C382.5,134.4 375.8,141.1 375.8,149.5C375.8,157.9 382.5,164.6 390.9,164.6C403.4,164.6 406.5,153.8 405.4,146.4L390.9,146.4L390.9,146.5Z" style="fill:rgb(221,79,67);fill-rule:nonzero;"/>
    </g>
    <g transform="matrix(1,0,0,1,-375.8,-134.4)">
        <path d="M418.1,146.9L418.1,141.6L414.5,141.6L414.5,146.9L409.1,146.9L409.1,150.6L414.5,150.6L414.5,155.9L418.1,155.9L418.1,150.6L423.4,150.6L423.4,146.9L418.1,146.9Z" style="fill:rgb(221,79,67);fill-rule:nonzero;"/>
    </g>
</svg>
