<svg xmlns="http://www.w3.org/2000/svg" width="33.999" height="33.999" viewBox="0 0 33.999 33.999"><g transform="translate(0)"><path d="M242.519,234.175a7.536,7.536,0,0,1-5.346-2.2,7.428,7.428,0,0,1-2.211-5.308,1,1,0,1,0-1.992,0,7.428,7.428,0,0,1-2.211,5.308,7.536,7.536,0,0,1-5.346,2.2,1,1,0,1,0,0,1.992,7.55,7.55,0,0,1,7.556,7.526,1,1,0,1,0,1.992,0,7.55,7.55,0,0,1,7.556-7.526,1,1,0,0,0,0-1.992Zm-8.552,5.287a9.6,9.6,0,0,0-4.291-4.286,9.6,9.6,0,0,0,4.291-4.267,9.6,9.6,0,0,0,4.291,4.267A9.6,9.6,0,0,0,233.966,239.463Zm0,0" transform="translate(-209.516 -210.69)" fill="#050722"/><path d="M13.628,148.133a5.307,5.307,0,0,1-5.32-5.281,1,1,0,1,0-1.992,0A5.307,5.307,0,0,1,1,148.133a1,1,0,0,0,0,1.992,5.315,5.315,0,0,1,5.32,5.3,1,1,0,1,0,1.992,0,5.315,5.315,0,0,1,5.32-5.3,1,1,0,0,0,0-1.992Zm-6.316,3.62a7.356,7.356,0,0,0-2.628-2.622,7.348,7.348,0,0,0,2.628-2.617A7.348,7.348,0,0,0,9.94,149.13,7.354,7.354,0,0,0,7.312,151.753Zm0,0" transform="translate(0 -132.436)" fill="#050722"/><path d="M215.633,6.883a3.9,3.9,0,0,1,3.913,3.883,1,1,0,0,0,1.992,0,3.908,3.908,0,0,1,3.913-3.9,1,1,0,0,0,0-1.992A3.9,3.9,0,0,1,221.538,1a1,1,0,0,0-1.992,0,3.908,3.908,0,0,1-3.913,3.9,1,1,0,1,0,0,1.992Zm4.911-2.622a5.94,5.94,0,0,0,1.622,1.614A5.944,5.944,0,0,0,220.54,7.5a5.94,5.94,0,0,0-1.622-1.614A5.941,5.941,0,0,0,220.544,4.261Zm0,0" transform="translate(-200.384)" fill="#050722"/></g></svg>