<svg xmlns="http://www.w3.org/2000/svg" width="28.631" height="34.999" viewBox="0 0 28.631 34.999"><g transform="translate(-46.577)"><g transform="translate(46.577)"><path d="M75.185,19.873l-.155-2.758-1.684,2.19a4.625,4.625,0,0,1-.784.764,10.912,10.912,0,0,0,.357-1.621,11.5,11.5,0,0,0-2.43-8.66L69.423,8.364,68.725,10c-.806,1.887-2.11,2.834-3.322,2.412a3.906,3.906,0,0,1-2.081-2.93c-.363-1.434-.574-3.957.483-7.836L64.253,0,62.589.375c-5.613,1.264-9.4,5.251-10.938,11.527a27.912,27.912,0,0,0-.753,6.829,11.19,11.19,0,0,1-2.006-2.038l-1.263-1.856-.575,2.173A14.323,14.323,0,0,0,60.716,35l.177,0,.177,0A14.331,14.331,0,0,0,75.208,20.683C75.208,20.421,75.2,20.148,75.185,19.873ZM60.892,32.946a4.807,4.807,0,0,1-4.8-4.8c0-4.621,2.185-6.691,3.888-7.6a5.426,5.426,0,0,0,.337,3.112,3.358,3.358,0,0,0,2.572,2.161,2.639,2.639,0,0,0,1.864-.527,4.8,4.8,0,0,1-3.86,7.658Zm6.063-1.607a6.85,6.85,0,0,0-1.485-8.3l-.842-.756-.67.911c-.171.232-.507.616-.842.578-.265-.03-.653-.333-.919-.943a3.427,3.427,0,0,1,.452-3.391l1.421-1.925-2.374.3a8.9,8.9,0,0,0-3.868,1.679c-3.131,2.354-3.789,6-3.789,8.65a6.811,6.811,0,0,0,.792,3.2,12.271,12.271,0,0,1-6.2-10.657q0-.583.055-1.162a15.952,15.952,0,0,0,2.825,2.128l1.783,1.057-.24-2.06a26.275,26.275,0,0,1,.6-8.307c1.211-4.873,3.815-8.057,7.752-9.488a16.364,16.364,0,0,0-.076,7.132c.561,2.218,1.8,3.809,3.4,4.365a3.913,3.913,0,0,0,3.368-.4,5.681,5.681,0,0,0,1.64-1.565A9.027,9.027,0,0,1,70.9,18.071a8.2,8.2,0,0,1-1,3.054l-.878,1.347,1.591.229a3.9,3.9,0,0,0,2.455-.512A12.288,12.288,0,0,1,66.955,31.339Z" transform="translate(-46.577)" fill="#050722"/></g></g></svg>