<svg xmlns="http://www.w3.org/2000/svg" width="30.215" height="38" viewBox="0 0 30.215 38"><g transform="translate(-867 -1619)"><g transform="translate(1)"><g transform="translate(866 1629.556)" fill="none" stroke="#050722" stroke-width="1.8"><rect width="19" height="27.444" stroke="none"/><rect x="0.9" y="0.9" width="17.2" height="25.644" fill="none"/></g><g transform="translate(872.333 1623.222)" fill="none"><path d="M0,0H6.333V8.016H0Z" stroke="none"/><path d="M 1.799996852874756 1.800002574920654 L 1.799996852874756 6.215622425079346 L 4.533336639404297 6.215622425079346 L 4.533336639404297 1.800002574920654 L 1.799996852874756 1.800002574920654 M -3.337860107421875e-06 2.86102294921875e-06 L 6.33333683013916 2.86102294921875e-06 L 6.33333683013916 8.015622138977051 L -3.337860107421875e-06 8.015622138977051 L -3.337860107421875e-06 2.86102294921875e-06 Z" stroke="none" fill="#050722"/></g><circle cx="1.143" cy="1.143" r="1.143" transform="translate(881.833 1623.57)" fill="#272d71"/><circle cx="1.143" cy="1.143" r="1.143" transform="translate(887.882 1621.285)" fill="#272d71"/><circle cx="1.143" cy="1.143" r="1.143" transform="translate(887.882 1625.855)" fill="#272d71"/><circle cx="1.143" cy="1.143" r="1.143" transform="translate(893.93 1619)" fill="#272d71"/><circle cx="1.143" cy="1.143" r="1.143" transform="translate(893.93 1628.14)" fill="#272d71"/><circle cx="1.143" cy="1.143" r="1.143" transform="translate(893.93 1623.57)" fill="#272d71"/></g><path d="M11190.687,2181.444h-11.216v13.128h11.216" transform="translate(-10306 -545)" fill="none" stroke="#050722" stroke-width="1.8"/></g></svg>