<?xml version="1.0" encoding="UTF-8" standalone="no"?>
<!DOCTYPE svg PUBLIC "-//W3C//DTD SVG 1.1//EN" "http://www.w3.org/Graphics/SVG/1.1/DTD/svg11.dtd">
<svg width="100%" height="100%" viewBox="0 0 48 38" version="1.1" xmlns="http://www.w3.org/2000/svg" xmlns:xlink="http://www.w3.org/1999/xlink" xml:space="preserve" xmlns:serif="http://www.serif.com/" style="fill-rule:evenodd;clip-rule:evenodd;stroke-linejoin:round;stroke-miterlimit:1.41421;">
    <g transform="matrix(0.461651,0,0,0.461651,0.000230825,0)">
        <path d="M9.675,80.457C4.335,80.457 -0.001,76.122 -0.001,70.782L-0.001,28.894C6.324,35.447 14.065,42.963 21.749,48.101C29.423,53.234 37.404,58.147 46.184,60.328C47.893,60.753 49.689,60.9 51.441,60.9C53.194,60.9 54.989,60.753 56.699,60.328C65.479,58.147 73.459,53.234 81.134,48.101C88.818,42.963 96.559,35.447 102.883,28.894L102.883,70.782C102.883,76.122 98.547,80.457 93.208,80.457L9.675,80.457ZM95.208,0C98.166,0 102.919,1.972 102.841,7C102.715,15.11 75.056,42.209 54.339,47.502C53.373,47.749 52.407,47.869 51.441,47.869C50.475,47.869 49.509,47.749 48.544,47.502C27.827,42.209 0.167,15.11 0.041,7C-0.036,1.972 4.716,0 7.675,0L95.208,0Z" style="fill:rgb(83,83,83);"/>
    </g>
</svg>
