<?xml version="1.0" encoding="UTF-8" standalone="no"?>
<!DOCTYPE svg PUBLIC "-//W3C//DTD SVG 1.1//EN" "http://www.w3.org/Graphics/SVG/1.1/DTD/svg11.dtd">
<svg width="100%" height="100%" viewBox="0 0 23 41" version="1.1" xmlns="http://www.w3.org/2000/svg" xmlns:xlink="http://www.w3.org/1999/xlink" xml:space="preserve" xmlns:serif="http://www.serif.com/" style="fill-rule:evenodd;clip-rule:evenodd;stroke-linejoin:round;stroke-miterlimit:1.41421;">
    <g transform="matrix(0.231948,-0.865641,0.865641,0.231948,-30.8747,34.5951)">
        <path d="M28.135,30.612C46.488,30.644 50.186,39.049 50.477,43.956C50.518,44.653 48.514,48.264 48.1,48.25C46.41,48.193 38.782,46.341 38.369,45.867C37.116,44.43 38.452,42.017 38.224,39.708C38.035,37.794 33.029,36.989 28.135,37.033C23.24,36.989 18.374,37.794 18.185,39.708C17.958,42.017 19.293,44.43 18.04,45.867C17.627,46.341 9.999,48.193 8.309,48.25C7.895,48.264 5.891,44.653 5.932,43.956C6.223,39.049 9.782,30.644 28.135,30.612L28.135,30.612Z" style="fill:rgb(83,83,83);"/>
    </g>
</svg>
