<?xml version="1.0" encoding="UTF-8" standalone="no"?>
<!DOCTYPE svg PUBLIC "-//W3C//DTD SVG 1.1//EN" "http://www.w3.org/Graphics/SVG/1.1/DTD/svg11.dtd">
<svg width="100%" height="100%" viewBox="0 0 30 39" version="1.1" xmlns="http://www.w3.org/2000/svg" xmlns:xlink="http://www.w3.org/1999/xlink" xml:space="preserve" xmlns:serif="http://www.serif.com/" style="fill-rule:evenodd;clip-rule:evenodd;stroke-linejoin:round;stroke-miterlimit:1.41421;">
    <g transform="matrix(2.42503,0,0,2.42503,-4.85006,0)">
        <path d="M8,0C4.687,0 2,2.687 2,6C2,9.854 6.321,14.663 7,15.398C7.281,15.703 7.516,16 8,16C8.484,16 8.719,15.703 9,15.398C9.679,14.663 14,9.854 14,6C14,2.687 11.313,0 8,0ZM8,10C5.791,10 4,8.209 4,6C4,3.791 5.791,2 8,2C10.209,2 12,3.791 12,6C12,8.209 10.209,10 8,10ZM8,4C6.896,4 6,4.896 6,6C6,7.104 6.896,8 8,8C9.104,8 10,7.104 10,6C10,4.896 9.104,4 8,4Z" style="fill:rgb(83,83,83);fill-rule:nonzero;"/>
    </g>
</svg>
